<svg width="1940" height="708" viewBox="0 0 1940 708" fill="none" xmlns="http://www.w3.org/2000/svg">
<path d="M1075.25 523.359C1098.2 523.359 1118.24 519.142 1135.38 510.707C1152.81 501.972 1166.46 490.074 1176.34 475.013C1186.22 459.65 1191.16 442.179 1191.16 422.6C1191.16 377.417 1165.16 346.09 1113.16 328.619L1050.85 307.834C1031.09 300.906 1021.22 289.46 1021.22 273.495C1021.22 262.651 1025.43 253.916 1033.85 247.289C1042.28 240.361 1053.32 236.897 1066.97 236.897C1082.66 236.897 1096.6 241.415 1108.8 250.452C1121 259.187 1130.15 271.387 1136.25 287.05L1191.16 261.296C1182.15 234.788 1166.46 214.004 1144.1 198.943C1122.02 183.58 1096.31 175.899 1066.97 175.899C1044.89 175.899 1025.28 180.116 1008.14 188.55C991.296 196.985 978.078 208.732 968.492 223.793C959.196 238.855 954.548 256.325 954.548 276.206C954.548 321.992 980.548 353.771 1032.55 371.543L1096.16 393.231C1115.34 399.858 1124.92 411.003 1124.92 426.667C1124.92 437.511 1120.71 446.246 1112.29 452.873C1104.15 459.199 1093.26 462.361 1079.61 462.361C1062.18 462.361 1046.2 457.09 1031.67 446.547C1017.44 436.004 1006.26 421.546 998.123 403.171L942.783 428.926C949.174 448.204 958.76 464.922 971.542 479.079C984.615 493.237 1000.01 504.231 1017.73 512.063C1035.74 519.594 1054.91 523.359 1075.25 523.359Z" fill="white"/>
<path d="M1349.1 520.648C1359.85 520.648 1370.01 519.895 1379.6 518.389V460.554C1373.5 461.458 1368.42 461.91 1364.35 461.91C1337.33 461.91 1323.82 449.409 1323.82 424.407V329.974H1379.6V271.236H1323.82V215.209H1258.46V233.282C1258.46 258.585 1245.83 271.236 1220.55 271.236H1218.37V329.974H1258.46V428.926C1258.46 457.843 1266.31 480.435 1281.99 496.701C1297.97 512.665 1320.34 520.648 1349.1 520.648Z" fill="white"/>
<path d="M1532.5 523.359C1556.9 523.359 1578.25 517.937 1596.56 507.093C1614.86 495.948 1627.64 481.338 1634.9 463.265L1582.61 437.511C1577.96 445.945 1571.43 452.572 1563 457.391C1554.87 462.211 1544.99 464.621 1533.37 464.621C1517.4 464.621 1504.32 459.952 1494.16 450.614C1483.99 441.276 1478.03 428.926 1476.29 413.563H1642.74C1643.91 410.25 1644.63 406.334 1644.92 401.816C1645.5 396.996 1645.79 392.177 1645.79 387.357C1645.79 364.464 1641.15 343.981 1631.85 325.908C1622.85 307.533 1609.63 292.924 1592.2 282.08C1574.77 271.236 1553.42 265.814 1528.14 265.814C1505.48 265.814 1485.15 271.387 1467.14 282.532C1449.13 293.677 1434.75 308.889 1424 328.167C1413.54 347.445 1408.31 369.434 1408.31 394.135C1408.31 417.931 1413.4 439.619 1423.57 459.199C1433.73 478.778 1448.11 494.442 1466.7 506.189C1485.3 517.636 1507.23 523.359 1532.5 523.359ZM1528.14 320.034C1541.51 320.034 1552.55 324.1 1561.26 332.233C1569.97 340.366 1575.06 350.909 1576.51 363.862H1477.6C1480.79 349.704 1486.75 338.86 1495.46 331.33C1504.47 323.799 1515.36 320.034 1528.14 320.034Z" fill="white"/>
<path d="M1684.28 608.303H1749.64V498.96C1758.07 507.093 1768.09 513.268 1779.71 517.485C1791.62 521.401 1804.26 523.359 1817.62 523.359C1840.86 523.359 1861.63 517.636 1879.93 506.189C1898.23 494.743 1912.61 479.23 1923.07 459.65C1933.82 440.071 1939.19 418.383 1939.19 394.586C1939.19 370.489 1933.82 348.801 1923.07 329.522C1912.32 309.943 1897.8 294.43 1879.5 282.984C1861.19 271.537 1840.71 265.814 1818.06 265.814C1786.39 265.814 1762.14 276.206 1745.29 296.99V271.236H1684.28V608.303ZM1809.78 462.361C1792.06 462.361 1777.53 456.186 1766.2 443.836C1755.16 431.185 1749.64 414.768 1749.64 394.586C1749.64 374.706 1755.16 358.44 1766.2 345.788C1777.53 333.137 1792.06 326.811 1809.78 326.811C1827.79 326.811 1842.6 333.288 1854.22 346.24C1865.84 358.892 1871.65 375.007 1871.65 394.586C1871.65 414.467 1865.84 430.733 1854.22 443.384C1842.6 456.036 1827.79 462.361 1809.78 462.361Z" fill="white"/>
<path d="M0.308702 177.902L306.527 1.09155L306.514 354.69L0.295349 531.5L0.308702 177.902Z" fill="#118AB2"/>
<path d="M306.558 0.755859L612.79 177.543L510.713 236.472L204.481 59.685L306.558 0.755859Z" fill="#00F8B7"/>
<path d="M510.487 236.365L510.491 354.231L204.273 177.42L204.268 59.554L510.487 236.365Z" fill="#09BD8E"/>
<path d="M204.063 177.597L510.295 354.385L408.218 413.314L101.986 236.527L204.063 177.597Z" fill="#FFE3A3"/>
<path d="M409.435 413.924L409.44 531.79L103.221 354.98L103.217 237.114L409.435 413.924Z" fill="#FFBB1D"/>
<path d="M102.29 354.432L408.522 531.22L306.445 590.149L0.213242 413.361L102.29 354.432Z" fill="#FF965E"/>
<path d="M306.218 590.043L306.223 707.909L0.00444622 531.098L0 413.232L306.218 590.043Z" fill="#D94C00"/>
<path d="M510.617 236.4L612.69 177.464L612.677 531.062L510.604 589.998L510.617 236.4Z" fill="#06D6A0"/>
<path d="M408.331 413.244L510.404 354.307L510.395 590.039L408.322 648.976L408.331 413.244Z" fill="#FFD166"/>
<path d="M306.045 590.079L408.118 531.142L408.113 649.008L306.041 707.945L306.045 590.079Z" fill="#F3722C"/>
</svg>
